<svg xmlns="http://www.w3.org/2000/svg" version="1.1" xmlns:xlink="http://www.w3.org/1999/xlink" xmlns:svgjs="http://svgjs.dev/svgjs" width="1500" height="246" viewBox="0 0 1500 246"><g transform="matrix(1,0,0,1,-0.9090909090909918,-1.2195911588135857)"><svg viewBox="0 0 396 65" data-background-color="#ffffff" preserveAspectRatio="xMidYMid meet" height="246" width="1500" xmlns="http://www.w3.org/2000/svg" xmlns:xlink="http://www.w3.org/1999/xlink"><g id="tight-bounds" transform="matrix(1,0,0,1,0.2400000000000091,0.32224969643448276)"><svg viewBox="0 0 395.52 64.35550060713102" height="64.35550060713102" width="395.52"><g><svg viewBox="0 0 395.52 64.35550060713102" height="64.35550060713102" width="395.52"><g><svg viewBox="0 0 395.52 64.35550060713102" height="64.35550060713102" width="395.52"><g id="textblocktransform"><svg viewBox="0 0 395.52 64.35550060713102" height="64.35550060713102" width="395.52" id="textblock"><g><svg viewBox="0 0 395.52 64.35550060713102" height="64.35550060713102" width="395.52"><g transform="matrix(1,0,0,1,0,0)"><svg width="395.52" viewBox="4 -35.5 221.15 35.99" height="64.35550060713102" data-palette-color="#7001fd"><path d="M23.71-8.59L23.71-8.59Q23.71-6.81 23.03-5.25 22.36-3.69 21.19-2.51 20.02-1.34 18.44-0.67 16.87 0 15.09 0L15.09 0 4 0 4-35.01 15.09-35.01Q16.87-35.01 18.44-34.34 20.02-33.67 21.19-32.5 22.36-31.32 23.03-29.75 23.71-28.17 23.71-26.39L23.71-26.39 23.71-8.59ZM20.56-8.59L20.56-26.39Q20.56-27.56 20.12-28.58 19.68-29.59 18.91-30.36 18.14-31.13 17.13-31.57 16.11-32.01 14.94-32.01L14.94-32.01 7.15-32.01 7.15-3 14.94-3Q16.11-3 17.13-3.44 18.14-3.88 18.91-4.64 19.68-5.4 20.12-6.41 20.56-7.42 20.56-8.59L20.56-8.59ZM50.39-9.16L50.39-8.11Q50.39-6.32 49.67-4.76 48.95-3.2 47.74-2.03 46.53-0.85 44.93-0.18 43.33 0.49 41.55 0.49L41.55 0.49 39.04 0.49Q37.25 0.49 35.65-0.18 34.06-0.85 32.85-2.03 31.64-3.2 30.92-4.76 30.2-6.32 30.2-8.11L30.2-8.11 30.2-9.5 33.35-10.01 33.35-8.11Q33.35-6.93 33.82-5.92 34.3-4.91 35.1-4.14 35.91-3.37 36.97-2.93 38.03-2.49 39.21-2.49L39.21-2.49 41.4-2.49Q42.58-2.49 43.63-2.93 44.68-3.37 45.48-4.14 46.29-4.91 46.76-5.92 47.24-6.93 47.24-8.11L47.24-8.11 47.24-9.16Q47.24-10.96 46.53-12.16 45.82-13.35 44.65-14.2 43.48-15.04 42-15.63 40.52-16.21 38.96-16.8 37.4-17.38 35.92-18.09 34.45-18.8 33.27-19.86 32.1-20.92 31.39-22.46 30.69-24 30.69-26.25L30.69-26.25 30.69-26.9Q30.69-28.69 31.36-30.25 32.03-31.81 33.2-32.98 34.37-34.16 35.95-34.83 37.52-35.5 39.3-35.5L39.3-35.5 41.55-35.5Q43.33-35.5 44.89-34.83 46.46-34.16 47.63-32.98 48.8-31.81 49.47-30.25 50.14-28.69 50.14-26.9L50.14-26.9 50.14-26 46.99-25.49 46.99-26.9Q46.99-28.08 46.56-29.09 46.12-30.1 45.36-30.86 44.6-31.62 43.59-32.06 42.58-32.5 41.4-32.5L41.4-32.5 39.45-32.5Q38.28-32.5 37.27-32.06 36.25-31.62 35.48-30.86 34.71-30.1 34.27-29.09 33.84-28.08 33.84-26.9L33.84-26.9 33.84-26.25Q33.84-24.56 34.54-23.41 35.25-22.27 36.42-21.45 37.6-20.63 39.07-20.03 40.55-19.43 42.11-18.81 43.67-18.19 45.15-17.44 46.63-16.7 47.8-15.61 48.97-14.53 49.68-12.96 50.39-11.4 50.39-9.16L50.39-9.16ZM76.34-18.41L76.34 0 75.34 0 73.51-2.81Q72.36-1.29 70.72-0.4 69.09 0.49 67.08 0.49L67.08 0.49 65.25 0.49Q63.47 0.49 61.9-0.18 60.32-0.85 59.15-2.03 57.98-3.2 57.31-4.76 56.64-6.32 56.64-8.11L56.64-8.11 56.64-26.9Q56.64-28.69 57.31-30.25 57.98-31.81 59.15-32.98 60.32-34.16 61.9-34.83 63.47-35.5 65.25-35.5L65.25-35.5 67.74-35.5Q69.53-35.5 71.09-34.83 72.65-34.16 73.82-32.98 75-31.81 75.67-30.25 76.34-28.69 76.34-26.9L76.34-26.9 76.34-25.49 73.19-25 73.19-26.9Q73.19-28.08 72.75-29.09 72.31-30.1 71.55-30.86 70.8-31.62 69.78-32.06 68.77-32.5 67.6-32.5L67.6-32.5 65.4-32.5Q64.23-32.5 63.22-32.06 62.2-31.62 61.43-30.86 60.66-30.1 60.22-29.09 59.79-28.08 59.79-26.9L59.79-26.9 59.79-8.11Q59.79-6.93 60.22-5.92 60.66-4.91 61.43-4.14 62.2-3.37 63.22-2.93 64.23-2.49 65.4-2.49L65.4-2.49 67.6-2.49Q68.77-2.49 69.78-2.93 70.8-3.37 71.55-4.14 72.31-4.91 72.75-5.92 73.19-6.93 73.19-8.11L73.19-8.11 73.19-15.41 67.6-15.41 67.6-18.41 76.34-18.41ZM103.95 0L100.31 0 90.81-14.94 86.49-14.94 86.49 0 83.34 0 83.34-35.01 94.45-35.01Q96.23-35.01 97.8-34.34 99.36-33.67 100.53-32.5 101.7-31.32 102.37-29.75 103.04-28.17 103.04-26.39L103.04-26.39 103.04-23.56Q103.04-21.78 102.37-20.2 101.7-18.63 100.53-17.46 99.36-16.28 97.8-15.61 96.23-14.94 94.45-14.94L94.45-14.94 103.95 0ZM99.89-23.56L99.89-26.39Q99.89-27.56 99.46-28.58 99.02-29.59 98.26-30.36 97.5-31.13 96.49-31.57 95.48-32.01 94.3-32.01L94.3-32.01 86.49-32.01 86.49-17.94 94.3-17.94Q95.48-17.94 96.49-18.38 97.5-18.82 98.26-19.59 99.02-20.36 99.46-21.37 99.89-22.39 99.89-23.56L99.89-23.56ZM138.29-32.01L129.94-32.01 129.94 0 126.79 0 126.79-32.01 118.44-32.01 118.44-35.01 138.29-35.01 138.29-32.01ZM163 0L143.3 0 143.3-35.01 163-35.01 163-32.01 146.44-32.01 146.44-18.99 159.85-18.99 159.85-15.99 146.44-15.99 146.44-3 163-3 163 0ZM188.19-8.11L188.19-8.11Q188.19-6.32 187.52-4.76 186.85-3.2 185.68-2.03 184.5-0.85 182.94-0.18 181.38 0.49 179.6 0.49L179.6 0.49 177.11 0.49Q175.32 0.49 173.75-0.18 172.17-0.85 171-2.03 169.83-3.2 169.16-4.76 168.49-6.32 168.49-8.11L168.49-8.11 168.49-26.9Q168.49-28.69 169.16-30.25 169.83-31.81 171-32.98 172.17-34.16 173.75-34.83 175.32-35.5 177.11-35.5L177.11-35.5 179.6-35.5Q181.38-35.5 182.94-34.83 184.5-34.16 185.68-32.98 186.85-31.81 187.52-30.25 188.19-28.69 188.19-26.9L188.19-26.9 188.19-25.49 185.04-25 185.04-26.9Q185.04-28.08 184.6-29.09 184.16-30.1 183.41-30.86 182.65-31.62 181.64-32.06 180.62-32.5 179.45-32.5L179.45-32.5 177.25-32.5Q176.08-32.5 175.07-32.06 174.05-31.62 173.29-30.86 172.52-30.1 172.08-29.09 171.64-28.08 171.64-26.9L171.64-26.9 171.64-8.11Q171.64-6.93 172.08-5.92 172.52-4.91 173.29-4.14 174.05-3.37 175.07-2.93 176.08-2.49 177.25-2.49L177.25-2.49 179.45-2.49Q180.62-2.49 181.64-2.93 182.65-3.37 183.41-4.14 184.16-4.91 184.6-5.92 185.04-6.93 185.04-8.11L185.04-8.11 185.04-10.01 188.19-9.5 188.19-8.11ZM214.9 0L211.75 0 211.75-15.99 198.34-15.99 198.34 0 195.19 0 195.19-35.01 198.34-35.01 198.34-18.99 211.75-18.99 211.75-35.01 214.9-35.01 214.9 0ZM225.15 0L221.39 0 221.39-3.76 225.15-3.76 225.15 0Z" opacity="1" transform="matrix(1,0,0,1,0,0)" fill="#7001fd" class="wordmark-text-0" data-fill-palette-color="primary" id="text-0"></path></svg></g></svg></g></svg></g></svg></g></svg></g><defs></defs></svg><rect width="395.52" height="64.35550060713102" fill="none" stroke="none" visibility="hidden"></rect></g></svg></g></svg>